<?xml version="1.0" encoding="UTF-8" standalone="no"?>
<svg
   xmlns:osb="http://www.openswatchbook.org/uri/2009/osb"
   xmlns:dc="http://purl.org/dc/elements/1.1/"
   xmlns:cc="http://creativecommons.org/ns#"
   xmlns:rdf="http://www.w3.org/1999/02/22-rdf-syntax-ns#"
   xmlns:svg="http://www.w3.org/2000/svg"
   xmlns="http://www.w3.org/2000/svg"
   xmlns:sodipodi="http://sodipodi.sourceforge.net/DTD/sodipodi-0.dtd"
   xmlns:inkscape="http://www.inkscape.org/namespaces/inkscape"
   width="142mm"
   height="112mm"
   viewBox="0 0 142 112"
   version="1.1"
   id="svg8"
   sodipodi:docname="pdf_download_icon_5.svg"
   inkscape:version="1.0.2 (394de47547, 2021-03-26)">
  <defs
     id="defs2">
    <linearGradient
       id="linearGradient2793"
       osb:paint="solid">
      <stop
         style="stop-color:#000000;stop-opacity:1;"
         offset="0"
         id="stop2791" />
    </linearGradient>
    <linearGradient
       id="linearGradient2785"
       osb:paint="solid">
      <stop
         style="stop-color:#000000;stop-opacity:1;"
         offset="0"
         id="stop2783" />
    </linearGradient>
    <clipPath
       clipPathUnits="userSpaceOnUse"
       id="clipPath2821">
      <g
         inkscape:label="Clip"
         id="use2823">
        <rect
           style="fill:#1a1a1a;fill-opacity:1;stroke:#ffffff;stroke-width:6.39051;stroke-miterlimit:4;stroke-dasharray:none;stroke-opacity:1"
           id="rect3541"
           width="25.971634"
           height="29.994881"
           x="95.525673"
           y="159.59317" />
        <path
           style="fill:#1a1a1a;fill-opacity:1;stroke:#000000;stroke-width:0.196662px;stroke-linecap:butt;stroke-linejoin:miter;stroke-opacity:1"
           d="M 108.57728,205.19514 90.588644,185.48008 h 35.482146 z"
           id="path3543" />
      </g>
    </clipPath>
  </defs>
  <sodipodi:namedview
     id="base"
     pagecolor="#ffffff"
     bordercolor="#666666"
     borderopacity="1.0"
     inkscape:pageopacity="0.0"
     inkscape:pageshadow="2"
     inkscape:zoom="1.979899"
     inkscape:cx="250.9365"
     inkscape:cy="439.6893"
     inkscape:document-units="mm"
     inkscape:current-layer="layer1"
     inkscape:document-rotation="0"
     showgrid="false"
     showguides="false"
     inkscape:lockguides="true"
     inkscape:window-width="2504"
     inkscape:window-height="1376"
     inkscape:window-x="1976"
     inkscape:window-y="27"
     inkscape:window-maximized="1"
     units="mm"
     width="106mm" />
  <metadata
     id="metadata5">
    <rdf:RDF>
      <cc:Work
         rdf:about="">
        <dc:format>image/svg+xml</dc:format>
        <dc:type
           rdf:resource="http://purl.org/dc/dcmitype/StillImage" />
        <dc:title></dc:title>
      </cc:Work>
    </rdf:RDF>
  </metadata>
  <g
     inkscape:label="Layer 1"
     inkscape:groupmode="layer"
     id="layer1">
    <path
       id="rect1507"
       style="fill:#fb161e;fill-opacity:1;stroke:none;stroke-width:20.7043"
       d="m 66.552734,11.884766 c -26.894902,0 -48.546875,21.651971 -48.546875,48.546875 V 247.84375 c 0,26.8949 21.651973,48.54687 48.546875,48.54687 h 99.345706 v -28.22656 h 209.37695 v 28.22656 h 93.19922 c 26.89489,0 48.54687,-21.65197 48.54687,-48.54687 V 60.431641 c 0,-26.894904 -21.65198,-48.546875 -48.54687,-48.546875 z m 7.089844,57.8125 h 62.437502 c 18.77075,0 33.56455,5.674193 44.38281,17.021484 10.81826,11.347279 16.22852,25.69393 16.22852,43.03906 0,17.18303 -5.41026,30.96128 -16.22852,41.33594 -10.81826,10.37465 -25.61206,15.5625 -44.38281,15.5625 h -24.7168 v 60.05859 H 73.642578 Z m 143.574222,0 h 50.29297 c 14.11389,0 26.61596,3.608636 37.50585,10.822265 10.96156,7.132581 19.52416,17.101985 25.68555,29.908199 6.23304,12.72517 9.34961,27.43611 9.34961,44.13282 v 7.41601 c 0,24.88297 -6.73599,45.22611 -20.20508,61.03125 -13.39744,15.72409 -30.59031,23.62598 -51.58203,23.70703 H 217.2168 Z m 142.28515,0 H 464.17383 V 102.64648 H 397.22266 V 143.375 h 60.82617 v 32.82617 h -60.82617 v 70.51367 H 359.50195 Z M 111.36328,102.64648 v 51.0625 h 24.7168 c 7.88085,0 13.57537,-2.22964 17.08594,-6.6875 3.58221,-4.45786 5.37304,-10.13206 5.37304,-17.02148 0,-7.21363 -1.79083,-13.5744 -5.37304,-19.08594 -3.51057,-5.51154 -9.20509,-8.26758 -17.08594,-8.26758 z m 143.57422,0 v 111.24414 h 13.11133 c 21.06336,0 32.20392,-15.35941 33.42187,-46.07812 l 0.10742,-13.49609 c 0,-33.71763 -10.89011,-50.94045 -32.66992,-51.66993 z"
       transform="scale(0.26458333)" />
    <rect
       style="fill:#000000;fill-opacity:1;stroke:none;stroke-width:4.05311"
       id="rect1526"
       width="30.719013"
       height="13.993218"
       x="55.760101"
       y="75.598351" />
    <path
       style="fill:#000000;fill-opacity:1;stroke:none;stroke-width:0.395963px;stroke-linecap:butt;stroke-linejoin:miter;stroke-opacity:1"
       d="M 32.470155,89.184859 H 110.36442 L 70.402276,108.18479 Z"
       id="path1532" />
  </g>
</svg>
