<?xml version="1.0" encoding="UTF-8" standalone="no"?>
<svg
   xmlns:osb="http://www.openswatchbook.org/uri/2009/osb"
   xmlns:dc="http://purl.org/dc/elements/1.1/"
   xmlns:cc="http://creativecommons.org/ns#"
   xmlns:rdf="http://www.w3.org/1999/02/22-rdf-syntax-ns#"
   xmlns:svg="http://www.w3.org/2000/svg"
   xmlns="http://www.w3.org/2000/svg"
   xmlns:sodipodi="http://sodipodi.sourceforge.net/DTD/sodipodi-0.dtd"
   xmlns:inkscape="http://www.inkscape.org/namespaces/inkscape"
   width="142mm"
   height="112mm"
   viewBox="0 0 142 112"
   version="1.1"
   id="svg8"
   sodipodi:docname="zip_download_icon_5.svg"
   inkscape:version="1.0.2 (394de47547, 2021-03-26)">
  <defs
     id="defs2">
    <linearGradient
       id="linearGradient2793"
       osb:paint="solid">
      <stop
         style="stop-color:#000000;stop-opacity:1;"
         offset="0"
         id="stop2791" />
    </linearGradient>
    <linearGradient
       id="linearGradient2785"
       osb:paint="solid">
      <stop
         style="stop-color:#000000;stop-opacity:1;"
         offset="0"
         id="stop2783" />
    </linearGradient>
    <clipPath
       clipPathUnits="userSpaceOnUse"
       id="clipPath2821">
      <g
         inkscape:label="Clip"
         id="use2823">
        <rect
           style="fill:#1a1a1a;fill-opacity:1;stroke:#ffffff;stroke-width:6.39051;stroke-miterlimit:4;stroke-dasharray:none;stroke-opacity:1"
           id="rect3541"
           width="25.971634"
           height="29.994881"
           x="95.525673"
           y="159.59317" />
        <path
           style="fill:#1a1a1a;fill-opacity:1;stroke:#000000;stroke-width:0.196662px;stroke-linecap:butt;stroke-linejoin:miter;stroke-opacity:1"
           d="M 108.57728,205.19514 90.588644,185.48008 h 35.482146 z"
           id="path3543" />
      </g>
    </clipPath>
  </defs>
  <sodipodi:namedview
     id="base"
     pagecolor="#ffffff"
     bordercolor="#666666"
     borderopacity="1.0"
     inkscape:pageopacity="0.0"
     inkscape:pageshadow="2"
     inkscape:zoom="0.35"
     inkscape:cx="-133.125"
     inkscape:cy="83.556428"
     inkscape:document-units="mm"
     inkscape:current-layer="layer1"
     inkscape:document-rotation="0"
     showgrid="false"
     showguides="false"
     inkscape:lockguides="true"
     inkscape:window-width="2504"
     inkscape:window-height="1376"
     inkscape:window-x="1976"
     inkscape:window-y="27"
     inkscape:window-maximized="1"
     units="mm"
     width="106mm" />
  <metadata
     id="metadata5">
    <rdf:RDF>
      <cc:Work
         rdf:about="">
        <dc:format>image/svg+xml</dc:format>
        <dc:type
           rdf:resource="http://purl.org/dc/dcmitype/StillImage" />
        <dc:title></dc:title>
      </cc:Work>
    </rdf:RDF>
  </metadata>
  <g
     inkscape:label="Layer 1"
     inkscape:groupmode="layer"
     id="layer1">
    <path
       id="rect1507"
       style="fill:#498dee;fill-opacity:1;stroke:none;stroke-width:20.7043"
       d="M 66.552734 11.884766 C 39.657834 11.884766 18.005859 33.536737 18.005859 60.431641 L 18.005859 247.84375 C 18.005859 274.73865 39.657834 296.39062 66.552734 296.39062 L 165.89844 296.39062 L 165.89844 268.16406 L 375.27539 268.16406 L 375.27539 296.39062 L 468.47461 296.39062 C 495.3695 296.39062 517.02148 274.73865 517.02148 247.84375 L 517.02148 60.431641 C 517.02148 33.536737 495.3695 11.884766 468.47461 11.884766 L 66.552734 11.884766 z M 75.849609 55.117188 L 217.625 55.117188 L 217.625 77.101562 L 131.45703 199.96484 L 218.50195 199.96484 L 218.50195 232.94141 L 76.474609 232.94141 L 76.474609 210.34766 L 163.51953 88.214844 L 75.849609 88.214844 L 75.849609 55.117188 z M 241.67188 55.117188 L 285.50781 55.117188 L 285.50781 232.94141 L 241.67188 232.94141 L 241.67188 55.117188 z M 316.44336 55.117188 L 389.20898 55.117188 C 411.08491 55.117188 428.32767 60.815878 440.93555 72.214844 C 453.54343 83.613809 459.84766 98.027039 459.84766 115.45117 C 459.84766 132.71246 453.54343 146.5527 440.93555 156.97461 C 428.32767 167.39652 411.08491 172.60742 389.20898 172.60742 L 360.40234 172.60742 L 360.40234 232.94141 L 316.44336 232.94141 L 316.44336 55.117188 z M 360.40234 88.214844 L 360.40234 139.50977 L 389.20898 139.50977 C 398.39353 139.50977 405.03175 137.27113 409.12305 132.79297 C 413.29784 128.3148 415.38477 122.61611 415.38477 115.69531 C 415.38477 108.44883 413.29784 102.05617 409.12305 96.519531 C 405.03175 90.982891 398.39353 88.214844 389.20898 88.214844 L 360.40234 88.214844 z "
       transform="scale(0.26458333)" />
    <rect
       style="fill:#000000;fill-opacity:1;stroke:none;stroke-width:4.05311"
       id="rect1526"
       width="30.719013"
       height="13.993218"
       x="55.760101"
       y="75.598351" />
    <path
       style="fill:#000000;fill-opacity:1;stroke:none;stroke-width:0.395963px;stroke-linecap:butt;stroke-linejoin:miter;stroke-opacity:1"
       d="M 32.470155,89.184859 H 110.36442 L 70.402276,108.18479 Z"
       id="path1532" />
  </g>
</svg>
